<svg width="115" height="111" viewBox="0 0 115 111" fill="none" xmlns="http://www.w3.org/2000/svg">
<path opacity="0.3" fill-rule="evenodd" clip-rule="evenodd" d="M18.1995 7.91284C20.3846 7.91284 22.156 6.14149 22.156 3.95642C22.156 1.77135 20.3846 0 18.1995 0C16.0145 0 14.2431 1.77135 14.2431 3.95642C14.2431 6.14149 16.0145 7.91284 18.1995 7.91284ZM78.6009 1.58263C77.4355 1.58263 76.4908 2.52735 76.4908 3.69272V14.7707H69.1055V12.6607C69.1055 11.4953 68.1608 10.5506 66.9954 10.5506C65.8301 10.5506 64.8853 11.4953 64.8853 12.6607V14.7707H28.9679C17.9222 14.7707 8.96789 23.7249 8.96789 34.7706V84.4495C8.96789 95.4952 17.9222 104.45 28.9679 104.45H78.6468C89.6925 104.45 98.6468 95.4953 98.6468 84.4496V34.7707C98.6468 26.518 93.6483 19.4328 86.5137 16.3773V12.6607C86.5137 11.4953 85.569 10.5506 84.4036 10.5506C83.2383 10.5506 82.2936 11.4953 82.2936 12.6607V15.1023C81.7728 15.0064 81.245 14.9306 80.711 14.8759V3.69272C80.711 2.52735 79.7663 1.58263 78.6009 1.58263ZM82.2936 32.7066V20.217C81.7762 20.0878 81.2481 19.9854 80.711 19.9115V23.7386C80.711 24.904 79.7663 25.8487 78.6009 25.8487C77.4355 25.8487 76.4908 24.904 76.4908 23.7386V19.7707H74.9083V29.0137C74.9083 30.1791 73.9635 31.1238 72.7982 31.1238C71.6328 31.1238 70.6881 30.1791 70.6881 29.0137V19.7707H69.1055V23.7387C69.1055 24.904 68.1608 25.8488 66.9954 25.8488C65.8301 25.8488 64.8853 24.904 64.8853 23.7387V19.7707H28.9679C20.6836 19.7707 13.9679 26.4864 13.9679 34.7706V84.4495C13.9679 92.7338 20.6836 99.4495 28.9679 99.4495H78.6468C86.9311 99.4495 93.6468 92.7338 93.6468 84.4496V34.7707C93.6468 29.3714 90.7941 24.6384 86.5137 21.9967V32.7066C86.5137 33.8719 85.569 34.8166 84.4036 34.8166C83.2383 34.8166 82.2936 33.8719 82.2936 32.7066ZM38.5997 70.7786C39.4237 69.9546 40.7597 69.9546 41.5838 70.7786L45.367 74.5618L47.7221 72.2067C48.7521 71.1766 50.4222 71.1766 51.4522 72.2067L53.8073 74.5618L56.1624 72.2067C57.1925 71.1766 58.8625 71.1766 59.8926 72.2067L62.2477 74.5618L66.0309 70.7786C66.8549 69.9546 68.1909 69.9546 69.015 70.7786C69.839 71.6027 69.839 72.9387 69.015 73.7628L64.1128 78.665C63.0827 79.695 61.4127 79.695 60.3826 78.665L58.0275 76.3099L55.6724 78.665C54.6423 79.695 52.9723 79.695 51.9422 78.665L49.5871 76.3099L47.232 78.665C46.202 79.695 44.5319 79.695 43.5019 78.665L38.5997 73.7628C37.7756 72.9387 37.7756 71.6027 38.5997 70.7786ZM28.9233 51.0793C28.0992 51.9033 28.0992 53.2393 28.9233 54.0634L31.3478 56.4879L28.9232 58.9126C28.0992 59.7366 28.0992 61.0726 28.9232 61.8967C29.7473 62.7207 31.0833 62.7207 31.9073 61.8967L34.332 59.4721L36.7566 61.8967C37.5806 62.7207 38.9167 62.7207 39.7407 61.8967C40.5648 61.0726 40.5648 59.7366 39.7407 58.9126L37.3161 56.4879L39.7406 54.0634C40.5647 53.2393 40.5647 51.9033 39.7406 51.0793C38.9166 50.2552 37.5806 50.2552 36.7565 51.0793L34.332 53.5038L31.9074 51.0793C31.0834 50.2552 29.7473 50.2552 28.9233 51.0793ZM67.4324 51.0792C66.6084 51.9033 66.6084 53.2393 67.4324 54.0634L69.857 56.4879L67.4324 58.9126C66.6083 59.7366 66.6083 61.0726 67.4324 61.8967C68.2564 62.7207 69.5924 62.7207 70.4165 61.8967L72.8411 59.472L75.2657 61.8967C76.0898 62.7207 77.4258 62.7207 78.2499 61.8967C79.0739 61.0726 79.0739 59.7366 78.2499 58.9126L75.8252 56.4879L78.2498 54.0634C79.0738 53.2393 79.0738 51.9033 78.2498 51.0792C77.4258 50.2552 76.0897 50.2552 75.2657 51.0792L72.8411 53.5038L70.4165 51.0792C69.5925 50.2552 68.2565 50.2552 67.4324 51.0792ZM109.461 38.9496C108.102 38.9496 107 40.0514 107 41.4106C107 42.7698 108.102 43.8716 109.461 43.8716C110.82 43.8716 111.922 42.7698 111.922 41.4106C111.922 40.0514 110.82 38.9496 109.461 38.9496ZM109.461 46.9496C112.52 46.9496 115 44.4697 115 41.4106C115 38.3515 112.52 35.8716 109.461 35.8716C106.402 35.8716 103.922 38.3515 103.922 41.4106C103.922 44.4697 106.402 46.9496 109.461 46.9496ZM1.38532 106.56C1.38532 105.285 2.41835 104.252 3.69266 104.252C4.96697 104.252 6 105.285 6 106.56C6 107.834 4.96697 108.867 3.69266 108.867C2.41835 108.867 1.38532 107.834 1.38532 106.56ZM7.38532 106.56C7.38532 108.599 5.73206 110.252 3.69266 110.252C1.65326 110.252 0 108.599 0 106.56C0 104.52 1.65326 102.867 3.69266 102.867C5.73206 102.867 7.38532 104.52 7.38532 106.56Z" fill="#1992CD"/>
</svg>
