<svg width="135" height="135" viewBox="0 0 135 135" fill="none" xmlns="http://www.w3.org/2000/svg">
<rect width="135" height="135" rx="67.5" fill="#E1E1E1"/>
<path d="M48 93.5H87V84.2143C86.9959 80.7677 85.5564 77.4634 82.9974 75.0262C80.4385 72.5891 76.9689 71.2182 73.35 71.2143H61.65C58.0311 71.2182 54.5615 72.5891 52.0026 75.0262C49.4436 77.4634 48.0041 80.7677 48 84.2143V93.5ZM53.85 54.5C53.85 57.0712 54.6506 59.5846 56.1504 61.7224C57.6503 63.8603 59.7822 65.5265 62.2764 66.5104C64.7706 67.4944 67.5151 67.7518 70.163 67.2502C72.8108 66.7486 75.243 65.5105 77.152 63.6924C79.061 61.8743 80.361 59.5579 80.8877 57.0362C81.4144 54.5144 81.1441 51.9006 80.111 49.5251C79.0778 47.1497 77.3283 45.1194 75.0835 43.6909C72.8388 42.2624 70.1997 41.5 67.5 41.5C63.8798 41.5 60.4079 42.8696 57.848 45.3076C55.2881 47.7456 53.85 51.0522 53.85 54.5Z" fill="white"/>
</svg>
