<svg width="60" height="60" viewBox="0 0 60 60" fill="none" xmlns="http://www.w3.org/2000/svg">
<rect width="60" height="60" rx="30" fill="#F5F5F5"/>
<path fill-rule="evenodd" clip-rule="evenodd" d="M38.2512 17.6287C38.3237 17.6317 38.3958 17.6349 38.4673 17.6383L36.5274 19.5258C35.686 19.0587 35.0541 18.2524 34.848 17.2891C34.6573 16.3973 33.7851 15.6663 32.6683 15.6663H27.3317C26.2149 15.6663 25.3427 16.3973 25.152 17.2891C24.8254 18.816 23.4287 19.9483 21.8244 19.9609C19.6142 20.0543 18.4108 20.3133 17.5111 20.8755C16.8447 21.2919 16.2777 21.8236 15.8393 22.4371C15.3902 23.0656 15.1213 23.8663 14.9794 25.1706C14.8349 26.4985 14.8333 28.2116 14.8333 30.6209C14.8333 33.0302 14.8349 34.7432 14.9794 36.0712C15.1213 37.3754 15.3902 38.1762 15.8393 38.8046C15.9576 38.9702 16.0852 39.1297 16.2216 39.2827L14.5482 40.911C14.3309 40.6734 14.128 40.4231 13.9409 40.1612C13.1665 39.0777 12.8237 37.8307 12.6598 36.3236C12.5 34.8547 12.5 33.0148 12.5 30.6901V30.6901V30.5517V30.5517C12.5 28.227 12.5 26.387 12.6598 24.9182C12.8237 23.4111 13.1665 22.1641 13.9409 21.0805C14.5617 20.2117 15.3559 19.4707 16.2747 18.8966C17.7251 17.9905 19.4626 17.7239 21.7488 17.6287L21.7731 17.6277H21.7974C22.3341 17.6277 22.7765 17.2392 22.8702 16.8011C23.3126 14.7328 25.2201 13.333 27.3317 13.333H32.6683C34.7799 13.333 36.6874 14.7328 37.1297 16.8011C37.2234 17.2392 37.6659 17.6277 38.2026 17.6277H38.2269L38.2512 17.6287ZM43.1616 18.6059L45.9344 15.833C46.4226 15.3449 46.4226 14.5534 45.9344 14.0652C45.4463 13.5771 44.6548 13.5771 44.1667 14.0652L14.1667 44.0652C13.6785 44.5534 13.6785 45.3448 14.1667 45.833C14.6548 46.3212 15.4463 46.3212 15.9344 45.833L18.523 43.2444C19.0733 43.3715 19.6618 43.4578 20.2961 43.5181C21.8547 43.6664 23.8122 43.6664 26.3088 43.6663H33.6913C36.1879 43.6664 38.1453 43.6664 39.7039 43.5181C41.2911 43.3671 42.5911 43.0538 43.7253 42.3451C44.6441 41.771 45.4383 41.0301 46.0591 40.1612C46.8335 39.0777 47.1763 37.8307 47.3402 36.3236C47.5 34.8547 47.5 33.0147 47.5 30.69V30.5518C47.5 28.2271 47.5 26.3871 47.3402 24.9182C47.1763 23.4111 46.8335 22.1641 46.0591 21.0805C45.4383 20.2117 44.6441 19.4707 43.7253 18.8966C43.6495 18.8493 43.4568 18.7533 43.2959 18.6731C43.2468 18.6486 43.2006 18.6256 43.1616 18.6059ZM41.404 20.3635L34.449 27.3184C34.7687 28.1683 35.0557 29.3137 35.0557 30.0554C35.0557 33.2771 32.4441 35.8888 29.2224 35.8888C28.2528 35.8888 27.3384 35.6522 26.5339 35.2336L20.5675 41.2C21.9954 41.3318 23.8288 41.333 26.3704 41.333H33.6296C36.2012 41.333 38.0477 41.3318 39.4829 41.1953C40.9023 41.0602 41.7922 40.8016 42.4889 40.3663C43.1553 39.9499 43.7223 39.4181 44.1607 38.8046C44.6098 38.1762 44.8787 37.3754 45.0206 36.0712C45.1651 34.7432 45.1667 33.0302 45.1667 30.6209C45.1667 28.2116 45.1651 26.4985 45.0206 25.1706C44.8787 23.8663 44.6098 23.0656 44.1607 22.4371C43.7223 21.8236 42.8723 21.169 42.2058 20.7526C41.9648 20.602 41.702 20.4732 41.404 20.3635ZM28.3275 33.44C28.6131 33.5153 28.9131 33.5554 29.2224 33.5554C31.1554 33.5554 32.7224 31.9884 32.7224 30.0554C32.7224 29.7461 32.6823 29.4461 32.607 29.1605L28.3275 33.44ZM29.2224 26.5554C29.2489 26.5554 29.2752 26.5557 29.3015 26.5563L31.3066 24.6054C30.6594 24.3578 29.9567 24.2221 29.2224 24.2221C26.0008 24.2221 23.3891 26.8338 23.3891 30.0554C23.3891 30.7334 23.5047 31.3843 23.7174 31.9895L25.7225 30.0387C25.7315 28.1134 27.295 26.5554 29.2224 26.5554ZM38.5556 24.2221C37.9112 24.2221 37.3889 24.7444 37.3889 25.3888C37.3889 26.0331 37.9112 26.5554 38.5556 26.5554H40.1111C40.7555 26.5554 41.2778 26.0331 41.2778 25.3888C41.2778 24.7444 40.7555 24.2221 40.1111 24.2221H38.5556Z" fill="#0F192C"/>
</svg>
