<svg width="60" height="60" viewBox="0 0 60 60" fill="none" xmlns="http://www.w3.org/2000/svg">
<rect width="60" height="60" rx="30" fill="#F5F5F5"/>
<path fill-rule="evenodd" clip-rule="evenodd" d="M23.0307 16.8011C23.4731 14.7328 25.3805 13.333 27.4921 13.333H32.8287C34.9403 13.333 36.8478 14.7328 37.2902 16.8011C37.3839 17.2392 37.8264 17.6277 38.363 17.6277H38.3873L38.4116 17.6287C40.6979 17.7239 42.4354 17.9905 43.8857 18.8966C44.8046 19.4707 45.5987 20.2117 46.2196 21.0805C46.9939 22.1641 47.3367 23.4111 47.5006 24.9182C47.6604 26.3871 47.6604 28.2271 47.6604 30.5518V30.69C47.6604 33.0147 47.6604 34.8547 47.5006 36.3236C47.3367 37.8307 46.9939 39.0777 46.2196 40.1612C45.5987 41.0301 44.8046 41.771 43.8857 42.3451C42.7515 43.0538 41.4515 43.3671 39.8643 43.5181C38.3057 43.6664 36.3484 43.6664 33.8517 43.6663H26.4692C23.9726 43.6664 22.0151 43.6664 20.4566 43.5181C18.8693 43.3671 17.5693 43.0538 16.4351 42.3451C15.5163 41.771 14.7221 41.0301 14.1013 40.1612C13.327 39.0777 12.9842 37.8307 12.8202 36.3236C12.6604 34.8547 12.6604 33.0148 12.6604 30.6901V30.5517C12.6604 28.227 12.6604 26.387 12.8202 24.9182C12.9842 23.4111 13.327 22.1641 14.1013 21.0805C14.7221 20.2117 15.5163 19.4707 16.4351 18.8966C17.8855 17.9905 19.623 17.7239 21.9093 17.6287L21.9335 17.6277H21.9578C22.4945 17.6277 22.937 17.2392 23.0307 16.8011ZM27.4921 15.6663C26.3753 15.6663 25.5032 16.3973 25.3124 17.2891C24.9858 18.816 23.5891 19.9483 21.9848 19.9609C19.7747 20.0543 18.5712 20.3133 17.6715 20.8755C17.0051 21.2919 16.4381 21.8236 15.9997 22.4371C15.5506 23.0656 15.2817 23.8663 15.1398 25.1706C14.9954 26.4985 14.9938 28.2116 14.9938 30.6209C14.9938 33.0302 14.9954 34.7432 15.1398 36.0712C15.2817 37.3754 15.5506 38.1762 15.9997 38.8046C16.4381 39.4181 17.0051 39.9499 17.6715 40.3663C18.3683 40.8016 19.2582 41.0602 20.6775 41.1953C22.1127 41.3318 23.9592 41.333 26.5308 41.333H33.79C36.3616 41.333 38.2081 41.3318 39.6433 41.1953C41.0627 41.0602 41.9526 40.8016 42.6493 40.3663C43.3158 39.9499 43.8827 39.4181 44.3211 38.8046C44.7702 38.1762 45.0391 37.3754 45.181 36.0712C45.3255 34.7432 45.3271 33.0302 45.3271 30.6209C45.3271 28.2116 45.3255 26.4985 45.181 25.1706C45.0391 23.8663 44.7702 23.0656 44.3211 22.4371C43.8827 21.8236 43.3158 21.2919 42.6493 20.8755C41.7496 20.3133 40.5462 20.0543 38.3361 19.9609C36.7318 19.9483 35.335 18.816 35.0084 17.2891C34.8177 16.3973 33.9455 15.6663 32.8287 15.6663H27.4921ZM29.3828 26.5554C27.4498 26.5554 25.8828 28.1224 25.8828 30.0554C25.8828 31.9884 27.4498 33.5554 29.3828 33.5554C31.3158 33.5554 32.8828 31.9884 32.8828 30.0554C32.8828 28.1224 31.3158 26.5554 29.3828 26.5554ZM23.5495 30.0554C23.5495 26.8338 26.1612 24.2221 29.3828 24.2221C32.6045 24.2221 35.2162 26.8338 35.2162 30.0554C35.2162 33.2771 32.6045 35.8888 29.3828 35.8888C26.1612 35.8888 23.5495 33.2771 23.5495 30.0554ZM38.716 24.2221C38.0717 24.2221 37.5493 24.7444 37.5493 25.3888C37.5493 26.0331 38.0717 26.5554 38.716 26.5554H40.2716C40.9159 26.5554 41.4382 26.0331 41.4382 25.3888C41.4382 24.7444 40.9159 24.2221 40.2716 24.2221H38.716Z" fill="#0F192C"/>
</svg>
