<svg width="30" height="31" viewBox="0 0 30 31" fill="none" xmlns="http://www.w3.org/2000/svg">
<path d="M11.3188 15.6982L15.1989 11.8182M18.3029 14.9222L14.4229 18.8023" stroke="#1A1919" stroke-width="1.5"/>
<path d="M6.43157 19.1193C5.52737 18.2151 5.07528 17.763 5.0108 17.2109C4.9964 17.0877 4.9964 16.9632 5.0108 16.8399C5.07528 16.2879 5.52737 15.8358 6.43156 14.9316C7.33575 14.0274 7.78785 13.5753 8.33994 13.5108C8.46318 13.4964 8.58768 13.4964 8.71092 13.5108C9.26301 13.5753 9.71511 14.0274 10.6193 14.9316L15.5684 19.8807C16.4726 20.7849 16.9247 21.237 16.9892 21.7891C17.0036 21.9123 17.0036 22.0368 16.9892 22.1601C16.9247 22.7122 16.4726 23.1642 15.5684 24.0684C14.6642 24.9726 14.2122 25.4247 13.6601 25.4892C13.5368 25.5036 13.4123 25.5036 13.2891 25.4892C12.737 25.4247 12.2849 24.9726 11.3807 24.0684L6.43157 19.1193Z" stroke="#1A1919" stroke-width="1.5"/>
<path d="M14.4316 11.1193C13.5274 10.2151 13.0753 9.76301 13.0108 9.21092C12.9964 9.08768 12.9964 8.96318 13.0108 8.83994C13.0753 8.28785 13.5274 7.83576 14.4316 6.93156C15.3358 6.02737 15.7879 5.57528 16.3399 5.5108C16.4632 5.4964 16.5877 5.4964 16.7109 5.5108C17.263 5.57528 17.7151 6.02737 18.6193 6.93156L23.5684 11.8807C24.4726 12.7849 24.9247 13.237 24.9892 13.7891C25.0036 13.9123 25.0036 14.0368 24.9892 14.1601C24.9247 14.7122 24.4726 15.1642 23.5684 16.0684C22.6642 16.9726 22.2122 17.4247 21.6601 17.4892C21.5368 17.5036 21.4123 17.5036 21.2891 17.4892C20.737 17.4247 20.2849 16.9726 19.3807 16.0684L14.4316 11.1193Z" stroke="#1A1919" stroke-width="1.5"/>
<path d="M21.0188 5.99805L24.1228 9.10206" stroke="#1A1919" stroke-width="1.5" stroke-linecap="round" stroke-linejoin="round"/>
<path d="M5.49756 21.5186L8.60157 24.6226" stroke="#1A1919" stroke-width="1.5" stroke-linecap="round" stroke-linejoin="round"/>
</svg>
