<svg width="18" height="10" viewBox="0 0 18 10" fill="none" xmlns="http://www.w3.org/2000/svg">
<path d="M0.0500398 1.30971C0.00753229 1.18276 -0.00905319 1.04858 0.00126676 0.9151C0.0115867 0.781626 0.0486021 0.651581 0.110118 0.532679C0.171634 0.413776 0.256398 0.308436 0.359384 0.222904C0.462371 0.137371 0.581483 0.0733876 0.709658 0.0347474C0.837834 -0.00389275 0.972463 -0.016403 1.10556 -0.00204201C1.23866 0.0123189 1.36753 0.0532587 1.48451 0.11835C1.60149 0.183442 1.70422 0.271361 1.78659 0.376892C1.86896 0.482424 1.9293 0.60342 1.96404 0.732708C4.05004 7.71871 13.946 7.71971 16.034 0.736709C16.0715 0.610771 16.1333 0.493438 16.2161 0.391409C16.2989 0.289381 16.4009 0.204654 16.5165 0.142067C16.632 0.0794806 16.7587 0.0402596 16.8894 0.0266431C17.02 0.0130266 17.1521 0.0252814 17.278 0.0627082C17.404 0.100135 17.5213 0.162001 17.6233 0.244773C17.7254 0.327545 17.8101 0.429603 17.8727 0.545119C17.9353 0.660635 17.9745 0.787347 17.9881 0.918021C18.0017 1.04869 17.9895 1.18077 17.952 1.30671C17.5882 2.5579 16.9711 3.72096 16.139 4.72371L17.414 5.99971C17.5962 6.18831 17.697 6.44091 17.6947 6.70311C17.6924 6.96531 17.5873 7.21612 17.4019 7.40153C17.2165 7.58694 16.9656 7.6921 16.7034 7.69438C16.4412 7.69666 16.1886 7.59587 16 7.41371L14.689 6.10271C13.9815 6.63622 13.1999 7.06372 12.369 7.37171L12.726 8.70671C12.7641 8.83476 12.7762 8.96914 12.7615 9.10192C12.7467 9.2347 12.7056 9.36319 12.6404 9.4798C12.5752 9.5964 12.4873 9.69876 12.3819 9.78083C12.2764 9.8629 12.1557 9.92302 12.0266 9.95763C11.8976 9.99225 11.7629 10.0007 11.6306 9.98236C11.4983 9.96407 11.3709 9.91944 11.2561 9.85112C11.1413 9.7828 11.0414 9.69217 10.9622 9.58459C10.883 9.477 10.8262 9.35463 10.795 9.22471L10.431 7.86771C9.48404 8.00771 8.51604 8.00771 7.56904 7.86771L7.20504 9.22471C7.17392 9.35463 7.11709 9.477 7.03789 9.58459C6.9587 9.69217 6.85875 9.7828 6.74395 9.85112C6.62914 9.91944 6.50181 9.96407 6.36948 9.98236C6.23714 10.0007 6.10248 9.99225 5.97345 9.95763C5.84442 9.92302 5.72363 9.8629 5.61822 9.78083C5.51281 9.69876 5.42491 9.5964 5.35971 9.4798C5.29451 9.36319 5.25334 9.2347 5.23863 9.10192C5.22392 8.96914 5.23596 8.83476 5.27404 8.70671L5.63104 7.37171C4.80009 7.06338 4.01854 6.63555 3.31104 6.10171L2.00104 7.41371C1.81353 7.60148 1.55911 7.70708 1.29375 7.70726C1.02838 7.70745 0.773813 7.60222 0.58604 7.41471C0.398267 7.2272 0.292671 6.97278 0.292484 6.70742C0.292296 6.44205 0.397532 6.18748 0.58504 5.99971L1.86004 4.72471C1.07604 3.78871 0.45004 2.65071 0.04804 1.31071L0.0500398 1.30971Z" fill="#1C274C"/>
</svg>
