<svg width="31" height="21" viewBox="0 0 31 21" fill="none" xmlns="http://www.w3.org/2000/svg">
<path d="M30.184 10.0674C30.141 9.96861 29.0876 7.63279 26.7354 5.28051C24.5527 3.10042 20.8028 0.5 15.3107 0.5C9.81872 0.5 6.06876 3.10042 3.88613 5.28051C1.53385 7.63279 0.48052 9.96481 0.437475 10.0674C0.394192 10.1646 0.371826 10.2698 0.371826 10.3763C0.371826 10.4827 0.394192 10.5879 0.437475 10.6852C0.48052 10.7827 1.53385 13.1185 3.88613 15.4708C6.06876 17.6508 9.81872 20.25 15.3107 20.25C20.8028 20.25 24.5527 17.6508 26.7354 15.4708C29.0876 13.1185 30.141 10.7865 30.184 10.6852C30.2273 10.5879 30.2497 10.4827 30.2497 10.3763C30.2497 10.2698 30.2273 10.1646 30.184 10.0674ZM15.3107 18.7308C11.338 18.7308 7.86904 17.285 4.99896 14.4351C3.79583 13.2394 2.77772 11.871 1.97823 10.375C2.77749 8.87922 3.79563 7.51118 4.99896 6.31612C7.86904 3.46503 11.338 2.01923 15.3107 2.01923C19.2835 2.01923 22.7524 3.46503 25.6225 6.31612C26.8259 7.51118 27.844 8.87922 28.6433 10.375C27.8368 11.9208 23.7931 18.7308 15.3107 18.7308ZM15.3107 4.55128C14.1589 4.55128 13.033 4.89284 12.0753 5.53275C11.1176 6.17267 10.3711 7.08221 9.93033 8.14636C9.48955 9.2105 9.37422 10.3815 9.59893 11.5112C9.82364 12.6408 10.3783 13.6785 11.1928 14.493C12.0072 15.3075 13.0449 15.8621 14.1746 16.0868C15.3043 16.3115 16.4752 16.1962 17.5394 15.7554C18.6035 15.3146 19.5131 14.5682 20.153 13.6105C20.7929 12.6528 21.1345 11.5268 21.1345 10.375C21.1325 8.83107 20.5182 7.35095 19.4265 6.25923C18.3348 5.16751 16.8547 4.55329 15.3107 4.55128ZM15.3107 14.6795C14.4594 14.6795 13.6272 14.427 12.9193 13.9541C12.2114 13.4811 11.6597 12.8088 11.3339 12.0223C11.0081 11.2357 10.9229 10.3702 11.089 9.53524C11.2551 8.70025 11.665 7.93326 12.267 7.33127C12.869 6.72927 13.636 6.31931 14.471 6.15322C15.306 5.98713 16.1715 6.07238 16.958 6.39817C17.7445 6.72397 18.4168 7.27569 18.8898 7.98355C19.3628 8.69142 19.6152 9.52365 19.6152 10.375C19.6152 11.5166 19.1617 12.6115 18.3545 13.4187C17.5472 14.226 16.4524 14.6795 15.3107 14.6795Z" fill="black"/>
</svg>
