<svg width="21" height="20" viewBox="0 0 21 20" fill="none" xmlns="http://www.w3.org/2000/svg">
<path d="M15.6583 18.9586H6.00833C3.725 18.9586 1.875 17.1003 1.875 14.817V8.64197C1.875 7.50864 2.575 6.08364 3.475 5.38364L7.96667 1.88364C9.31667 0.833637 11.475 0.783637 12.875 1.76697L18.025 5.3753C19.0167 6.06697 19.7917 7.5503 19.7917 8.75864V14.8253C19.7917 17.1003 17.9417 18.9586 15.6583 18.9586ZM8.73333 2.86697L4.24167 6.36697C3.65 6.83364 3.125 7.89197 3.125 8.64197V14.817C3.125 16.4086 4.41667 17.7086 6.00833 17.7086H15.6583C17.25 17.7086 18.5417 16.417 18.5417 14.8253V8.75864C18.5417 7.95864 17.9667 6.8503 17.3083 6.4003L12.1583 2.79197C11.2083 2.1253 9.64167 2.15864 8.73333 2.86697Z" fill="#2667AF"/>
<path d="M10.834 15.625C10.4923 15.625 10.209 15.3417 10.209 15V12.5C10.209 12.1583 10.4923 11.875 10.834 11.875C11.1757 11.875 11.459 12.1583 11.459 12.5V15C11.459 15.3417 11.1757 15.625 10.834 15.625Z" fill="#2667AF"/>
</svg>
