<svg width="39" height="39" viewBox="0 0 39 39" fill="none" xmlns="http://www.w3.org/2000/svg">
<rect x="0.111328" y="0.976562" width="38" height="38" rx="19" fill="#E1E1E1"/>
<g clip-path="url(#clip0_1115_12360)">
<path d="M19.2027 14.4536C20.1906 14.4431 20.9359 13.6802 20.9254 12.6888C20.9184 11.7325 20.1344 10.9661 19.1746 10.9767H19.1465C18.1867 11.0013 17.4555 11.7536 17.452 12.7169C17.4449 13.6696 18.2148 14.4501 19.1676 14.4571C19.1781 14.4536 19.1922 14.4536 19.2027 14.4536ZM26.1426 15.67H21.4633C21.2805 15.3958 20.9711 15.2306 20.6406 15.2306H17.7402C17.4098 15.2306 17.1004 15.3958 16.9141 15.67H12.2348C11.7602 15.67 11.3734 16.0532 11.3734 16.5314C11.3734 17.006 11.7602 17.3927 12.2348 17.3927H16.7453V22.0755L11.5035 27.3208C11.1238 27.7005 11.1238 28.3122 11.5035 28.6919C11.8832 29.0716 12.4949 29.0716 12.8746 28.6919L17.9055 23.661H23.6395V28.045C23.6395 28.5618 24.0578 28.9767 24.5711 28.9767H24.6449C25.1617 28.9767 25.5766 28.5583 25.5766 28.045V22.7189C25.5766 22.2091 25.1617 21.7942 24.652 21.7942H21.6285V17.3927H26.1426C26.6172 17.3927 27.0039 17.0095 27.0039 16.5314V16.5278C27.0039 16.0567 26.6172 15.67 26.1426 15.67Z" fill="#1A1919"/>
</g>
<defs>
<clipPath id="clip0_1115_12360">
<rect width="18" height="18" fill="white" transform="translate(10.1113 10.9766)"/>
</clipPath>
</defs>
</svg>
