<svg width="21" height="20" viewBox="0 0 21 20" fill="none" xmlns="http://www.w3.org/2000/svg">
<path d="M5.42577 16.7417C4.95077 16.7417 4.48411 16.6167 4.05078 16.3667C3.18411 15.8667 2.67578 14.9833 2.67578 13.9833V6.00832C2.67578 5.01665 3.19244 4.125 4.05078 3.625C4.91744 3.125 5.94243 3.125 6.80077 3.625L13.7091 7.60833C14.5674 8.10833 15.0841 8.99999 15.0841 9.99165C15.0841 10.9833 14.5674 11.875 13.7091 12.375L6.80077 16.3583C6.36743 16.6167 5.90077 16.7417 5.42577 16.7417ZM5.42577 4.50833C5.16744 4.50833 4.90911 4.57499 4.67578 4.70832C4.20911 4.98332 3.92578 5.46665 3.92578 6.00832V13.9833C3.92578 14.525 4.20911 15.0083 4.67578 15.2833C5.14244 15.55 5.7091 15.5583 6.17577 15.2833L13.0841 11.3C13.5508 11.025 13.8341 10.5417 13.8341 10C13.8341 9.45833 13.5508 8.975 13.0841 8.7L6.17577 4.71666C5.94243 4.58333 5.6841 4.50833 5.42577 4.50833Z" fill="white"/>
<path d="M17.0352 15.7746C16.6935 15.7746 16.4102 15.4913 16.4102 15.1496V4.84961C16.4102 4.50794 16.6935 4.22461 17.0352 4.22461C17.3768 4.22461 17.6602 4.50794 17.6602 4.84961V15.1496C17.6602 15.4913 17.3852 15.7746 17.0352 15.7746Z" fill="white"/>
</svg>
