<svg width="135" height="135" viewBox="0 0 135 135" fill="none" xmlns="http://www.w3.org/2000/svg">
<rect width="135" height="135" rx="67.5" fill="#E1E1E1"/>
<g clip-path="url(#clip0_1501_13259)">
<path d="M66.1763 55.8001C68.1907 55.8014 70.1603 55.1924 71.8358 54.0501C73.5113 52.9078 74.8174 51.2836 75.5889 49.383C76.3604 47.4824 76.5625 45.3907 76.1698 43.3727C75.7772 41.3547 74.8072 39.501 73.3828 38.0461C71.9583 36.5912 70.1434 35.6006 68.1676 35.1995C66.1917 34.7984 64.1438 35.0049 62.283 35.7929C60.4221 36.5809 58.8318 37.9149 57.7134 39.6261C56.595 41.3374 55.9987 43.3491 56 45.4065C56.005 48.1615 57.0788 50.8022 58.9861 52.7502C60.8934 54.6983 63.4789 55.795 66.1763 55.8001ZM78 87.6151C78.003 86.2282 77.4812 84.8937 76.5437 83.8904C75.6062 82.8871 74.3255 82.2924 72.9689 82.2307L72.2592 92.9996H72.7281C73.1645 93.0053 73.5996 92.9486 74.0207 92.8314C75.1588 92.5402 76.1688 91.8685 76.8899 90.9232C77.611 89.9779 78.0018 88.8135 78 87.6151Z" fill="white"/>
<path d="M78.68 81.8988C80.2154 83.4088 81.079 85.4535 81.0818 87.5861C81.0873 89.5896 80.3247 91.522 78.9454 93H87V79.1788L86.0181 65.4748C85.381 64.4155 84.4729 63.5376 83.3837 62.9282C82.2945 62.3187 81.0619 61.9988 79.8079 62H74.5267L73.3324 79.5823C75.3463 79.6767 77.2524 80.5025 78.68 81.8988ZM69.7629 93L71.8595 62H66.9232L52.8708 93H69.7629ZM41.3794 88.1457C41.857 89.5597 42.7771 90.7899 44.0088 91.6615C45.2405 92.533 46.721 93.0014 48.2398 93H49.9648L54.8745 82.1656H51.9605C51.6086 82.1656 51.2711 82.0285 51.0223 81.7844C50.7734 81.5404 50.6336 81.2094 50.6336 80.8642C50.6336 80.519 50.7734 80.188 51.0223 79.944C51.2711 79.6999 51.6086 79.5628 51.9605 79.5628H56.0529V79.5563L64.0146 62H52.3002C50.9978 61.9966 49.7188 62.3398 48.5995 62.9929C47.4802 63.6461 46.5625 64.5848 45.9442 65.7091L39.88 76.602C39.4078 77.4575 39.1184 78.3985 39.0294 79.3673C38.9404 80.3362 39.0538 81.3127 39.3625 82.2372L41.3794 88.1457Z" fill="white"/>
</g>
<defs>
<clipPath id="clip0_1501_13259">
<rect width="64" height="64" fill="white" transform="translate(35.5 35.5)"/>
</clipPath>
</defs>
</svg>
