<svg width="65" height="65" viewBox="0 0 65 65" fill="none" xmlns="http://www.w3.org/2000/svg">
<g clip-path="url(#clip0_1573_24436)">
<path d="M31.1763 20.8001C33.1907 20.8014 35.1603 20.1924 36.8358 19.0501C38.5113 17.9078 39.8174 16.2836 40.5889 14.383C41.3604 12.4824 41.5625 10.3907 41.1698 8.3727C40.7772 6.35469 39.8072 4.50098 38.3828 3.04611C36.9583 1.59125 35.1434 0.600606 33.1676 0.199524C31.1917 -0.201559 29.1438 0.00494232 27.283 0.792901C25.4221 1.58086 23.8318 2.91486 22.7134 4.62614C21.595 6.33741 20.9987 8.34905 21 10.4065C21.005 13.1615 22.0788 15.8022 23.9861 17.7502C25.8934 19.6983 28.4789 20.795 31.1763 20.8001ZM43 52.6151C43.003 51.2282 42.4812 49.8937 41.5437 48.8904C40.6062 47.8871 39.3255 47.2924 37.9689 47.2307L37.2592 57.9996H37.7281C38.1645 58.0053 38.5996 57.9486 39.0207 57.8314C40.1588 57.5402 41.1688 56.8685 41.8899 55.9232C42.611 54.9779 43.0018 53.8135 43 52.6151Z" fill="white"/>
<path d="M43.68 46.8988C45.2154 48.4088 46.079 50.4535 46.0818 52.5861C46.0873 54.5896 45.3247 56.522 43.9454 58H52V44.1788L51.0181 30.4748C50.381 29.4155 49.4729 28.5376 48.3837 27.9282C47.2945 27.3187 46.0619 26.9988 44.8079 27H39.5267L38.3324 44.5823C40.3463 44.6767 42.2524 45.5025 43.68 46.8988ZM34.7629 58L36.8595 27H31.9232L17.8708 58H34.7629ZM6.37944 53.1457C6.85704 54.5597 7.77713 55.7899 9.0088 56.6615C10.2405 57.533 11.721 58.0014 13.2398 58H14.9648L19.8745 47.1656H16.9605C16.6086 47.1656 16.2711 47.0285 16.0223 46.7844C15.7734 46.5404 15.6336 46.2094 15.6336 45.8642C15.6336 45.519 15.7734 45.188 16.0223 44.944C16.2711 44.6999 16.6086 44.5628 16.9605 44.5628H21.0529V44.5563L29.0146 27H17.3002C15.9978 26.9966 14.7188 27.3398 13.5995 27.9929C12.4802 28.6461 11.5625 29.5848 10.9442 30.7091L4.87999 41.602C4.40782 42.4575 4.1184 43.3985 4.02943 44.3673C3.94045 45.3362 4.05377 46.3127 4.36248 47.2372L6.37944 53.1457Z" fill="white"/>
</g>
<defs>
<clipPath id="clip0_1573_24436">
<rect width="64" height="64" fill="white" transform="translate(0.5 0.5)"/>
</clipPath>
</defs>
</svg>
