<svg width="65" height="65" viewBox="0 0 65 65" fill="none" xmlns="http://www.w3.org/2000/svg">
<path d="M48.8256 37.0605C49.3734 38.3252 49.6921 39.8727 49.7625 41.6621C51.6115 42.0858 52.9952 43.7396 52.9952 45.7146C52.9952 48.0084 51.1289 49.8746 48.8352 49.8746C46.5414 49.8746 44.6752 48.0084 44.6752 45.7146C44.6752 43.762 46.0288 42.1255 47.8451 41.6781C47.7651 39.9008 47.3401 37.1968 45.6006 35.8618C44.7029 35.6274 43.7877 35.4663 42.864 35.3799C42.7949 38.4935 32.5037 46.1773 32.5037 46.1773C32.5037 46.1773 22.2093 38.4948 22.1395 35.3812C21.1149 35.4748 20.101 35.6618 19.1104 35.9399C17.8413 36.9447 17.1846 38.8167 17.1507 41.538C17.5296 41.7588 17.8301 42.0924 18.0102 42.4922C19.3773 43.138 20.5849 44.496 21.5097 46.4295C21.6646 46.7546 21.6851 47.122 21.5712 47.4573C22.1254 48.8839 22.4422 50.4429 22.4422 51.7524C22.4422 53.5872 22.4422 55.3223 20.4422 55.7677C20.2254 55.9484 19.952 56.0471 19.6697 56.0468H18.3334C18.0114 56.0463 17.7026 55.9181 17.4748 55.6905C17.247 55.4628 17.1187 55.1541 17.1181 54.832L17.1193 54.7847C17.1333 54.4714 17.2671 54.1755 17.493 53.9581C17.719 53.7408 18.0199 53.6185 18.3334 53.6167H19.6697C19.8059 53.6167 19.9411 53.6397 20.0697 53.6845C20.1074 53.6765 20.1435 53.6624 20.1766 53.6429C20.3251 53.3792 20.3251 52.281 20.3251 51.7536C20.3251 50.69 20.0589 49.4055 19.5923 48.2119C19.3498 48.0744 19.155 47.866 19.0342 47.6148C18.224 45.9181 17.1219 44.8224 16.2272 44.8224C15.312 44.8224 14.1549 46.0077 13.3478 47.769C13.2142 48.057 12.9858 48.2903 12.7008 48.4301C12.279 49.5719 12.0473 50.7476 12.0473 51.753C12.0473 52.1959 12.0473 53.3709 12.2163 53.6474C12.2182 53.6474 12.256 53.6704 12.3622 53.6967C12.5005 53.6436 12.6489 53.616 12.7974 53.616H14.1363C14.4372 53.6164 14.7272 53.7283 14.9504 53.9301C15.1736 54.1318 15.3141 54.4092 15.3446 54.7085L15.351 54.7834C15.351 55.5008 14.8057 56.0474 14.1363 56.0474H12.7974C12.5318 56.0474 12.2752 55.9584 12.064 55.7972C11.2992 55.6532 10.7603 55.3159 10.4192 54.7668C10.0057 54.1031 9.93022 53.2314 9.93022 51.753C9.93022 50.4564 10.2297 48.9626 10.7737 47.536C10.693 47.2323 10.7213 46.9098 10.8537 46.6247C11.4201 45.3856 12.1408 44.3245 12.9369 43.5572C13.3505 43.1526 13.8225 42.8126 14.3373 42.5485C14.5183 42.124 14.8326 41.77 15.2326 41.5399C15.2531 39.8343 15.5155 38.3616 16.0006 37.1476C10.4467 39.9648 6.64062 45.7268 6.64062 52.3808C6.64062 60.8839 12.8531 61.2999 20.9856 61.2999C21.8733 61.2999 22.7821 61.2948 23.7107 61.2948H41.2896C42.2169 61.2948 43.1257 61.2999 44.0134 61.2999C52.1472 61.2999 58.3622 60.8839 58.3622 52.3808C58.3616 45.6564 54.4742 39.8439 48.8256 37.0605Z" fill="white"/>
<path d="M32.5064 37.6151C40.3682 37.6151 46.7406 25.7936 46.7406 17.9325C46.7406 10.0727 40.3682 3.7002 32.5064 3.7002C24.6459 3.7002 18.2734 10.0727 18.2734 17.9325C18.2734 25.7936 24.6459 37.6151 32.5064 37.6151Z" fill="white"/>
<path d="M48.8341 47.6349C49.8944 47.6349 50.7541 46.7753 50.7541 45.7149C50.7541 44.6545 49.8944 43.7949 48.8341 43.7949C47.7737 43.7949 46.9141 44.6545 46.9141 45.7149C46.9141 46.7753 47.7737 47.6349 48.8341 47.6349Z" fill="white"/>
</svg>
