<svg width="135" height="135" viewBox="0 0 135 135" fill="none" xmlns="http://www.w3.org/2000/svg">
<rect width="135" height="135" rx="67.5" fill="#E1E1E1"/>
<path d="M83.8236 72.061C84.3715 73.3257 84.6902 74.8732 84.7606 76.6626C86.6095 77.0863 87.9932 78.7401 87.9932 80.7151C87.9932 83.0089 86.127 84.8751 83.8332 84.8751C81.5395 84.8751 79.6732 83.0089 79.6732 80.7151C79.6732 78.7625 81.0268 77.126 82.8431 76.6786C82.7631 74.9013 82.3382 72.1973 80.5987 70.8623C79.701 70.6279 78.7858 70.4668 77.862 70.3804C77.7929 73.494 67.5017 81.1778 67.5017 81.1778C67.5017 81.1778 57.2073 73.4953 57.1376 70.3817C56.1129 70.4753 55.099 70.6623 54.1084 70.9404C52.8393 71.9452 52.1827 73.8172 52.1488 76.5385C52.5276 76.7593 52.8281 77.0929 53.0083 77.4927C54.3753 78.1385 55.583 79.4965 56.5078 81.43C56.6627 81.7551 56.6832 82.1225 56.5692 82.4578C57.1235 83.8844 57.4403 85.4434 57.4403 86.7529C57.4403 88.5877 57.4403 90.3228 55.4403 90.7682C55.2234 90.9489 54.95 91.0476 54.6678 91.0473H53.3315C53.0094 91.0467 52.7007 90.9186 52.4729 90.6909C52.2451 90.4633 52.1168 90.1546 52.1161 89.8325L52.1174 89.7852C52.1313 89.4719 52.2651 89.176 52.4911 88.9586C52.7171 88.7412 53.0179 88.619 53.3315 88.6172H54.6678C54.804 88.6172 54.9392 88.6402 55.0678 88.685C55.1054 88.677 55.1415 88.6629 55.1747 88.6434C55.3231 88.3797 55.3232 87.2815 55.3232 86.7541C55.3232 85.6905 55.0569 84.406 54.5904 83.2124C54.3478 83.0749 54.1531 82.8665 54.0323 82.6152C53.222 80.9186 52.12 79.8229 51.2252 79.8229C50.31 79.8229 49.1529 81.0082 48.3459 82.7695C48.2123 83.0575 47.9838 83.2908 47.6988 83.4306C47.2771 84.5724 47.0454 85.7481 47.0454 86.7535C47.0454 87.1964 47.0454 88.3714 47.2144 88.6479C47.2163 88.6479 47.254 88.6709 47.3603 88.6972C47.4985 88.6441 47.647 88.6165 47.7955 88.6165H49.1344C49.4352 88.6169 49.7253 88.7288 49.9485 88.9305C50.1717 89.1323 50.3121 89.4097 50.3427 89.709L50.3491 89.7839C50.3491 90.5013 49.8038 91.0479 49.1344 91.0479H47.7955C47.5299 91.0479 47.2732 90.9589 47.062 90.7977C46.2972 90.6537 45.7584 90.3164 45.4172 89.7673C45.0038 89.1036 44.9283 88.2319 44.9283 86.7535C44.9283 85.4569 45.2278 83.9631 45.7718 82.5365C45.6911 82.2327 45.7194 81.9103 45.8518 81.6252C46.4182 80.3861 47.1388 79.325 47.935 78.5577C48.3485 78.1531 48.8206 77.8131 49.3353 77.549C49.5164 77.1245 49.8307 76.7705 50.2307 76.5404C50.2512 74.8348 50.5136 73.3621 50.9987 72.1481C45.4448 74.9653 41.6387 80.7273 41.6387 87.3813C41.6387 95.8844 47.8512 96.3004 55.9836 96.3004C56.8713 96.3004 57.7801 96.2952 58.7087 96.2952H76.2876C77.215 96.2952 78.1238 96.3004 79.0115 96.3004C87.1452 96.3004 93.3603 95.8844 93.3603 87.3813C93.3596 80.6569 89.4723 74.8444 83.8236 72.061Z" fill="white"/>
<path d="M67.5044 72.6151C75.3662 72.6151 81.7387 60.7936 81.7387 52.9325C81.7387 45.0727 75.3662 38.7002 67.5044 38.7002C59.644 38.7002 53.2715 45.0727 53.2715 52.9325C53.2715 60.7936 59.644 72.6151 67.5044 72.6151Z" fill="white"/>
<path d="M83.8321 82.6349C84.8925 82.6349 85.7521 81.7753 85.7521 80.7149C85.7521 79.6545 84.8925 78.7949 83.8321 78.7949C82.7717 78.7949 81.9121 79.6545 81.9121 80.7149C81.9121 81.7753 82.7717 82.6349 83.8321 82.6349Z" fill="white"/>
</svg>
