<svg width="21" height="20" viewBox="0 0 21 20" fill="none" xmlns="http://www.w3.org/2000/svg">
<path d="M14.25 10.3913C13.9083 10.3913 13.625 10.108 13.625 9.76634V8.29137C13.625 7.89971 13.3083 7.58301 12.9167 7.58301H6.75C6.40833 7.58301 6.125 7.29967 6.125 6.95801C6.125 6.61634 6.40833 6.33301 6.75 6.33301H12.9167C14 6.33301 14.875 7.21637 14.875 8.29137V9.76634C14.875 10.108 14.5917 10.3913 14.25 10.3913Z" fill="#2667AF"/>
<path d="M8.1582 8.98356C7.99987 8.98356 7.84154 8.9252 7.71654 8.8002L6.3082 7.39186C6.06654 7.1502 6.06654 6.7502 6.3082 6.50853L7.71654 5.1002C7.95821 4.85853 8.3582 4.85853 8.59987 5.1002C8.84154 5.34186 8.84154 5.74186 8.59987 5.98353L7.6332 6.95022L8.59987 7.91687C8.84154 8.15853 8.84154 8.55853 8.59987 8.8002C8.47487 8.9252 8.31654 8.98356 8.1582 8.98356Z" fill="#2667AF"/>
<path d="M14.25 13.6755H8.08334C7.00001 13.6755 6.125 12.7922 6.125 11.7172V10.2422C6.125 9.90052 6.40833 9.61719 6.75 9.61719C7.09167 9.61719 7.375 9.90052 7.375 10.2422V11.7172C7.375 12.1089 7.69167 12.4255 8.08334 12.4255H14.25C14.5917 12.4255 14.875 12.7089 14.875 13.0505C14.875 13.3922 14.5917 13.6755 14.25 13.6755Z" fill="#2667AF"/>
<path d="M12.8417 15.0754C12.6833 15.0754 12.525 15.017 12.4 14.892C12.1583 14.6503 12.1583 14.2503 12.4 14.0087L13.3667 13.042L12.4 12.0753C12.1583 11.8337 12.1583 11.4337 12.4 11.192C12.6417 10.9503 13.0417 10.9503 13.2833 11.192L14.6917 12.6003C14.9333 12.842 14.9333 13.242 14.6917 13.4837L13.2833 14.892C13.1667 15.017 13 15.0754 12.8417 15.0754Z" fill="#2667AF"/>
<path d="M10.4993 18.9587C5.55768 18.9587 1.54102 14.942 1.54102 10.0003C1.54102 5.05866 5.55768 1.04199 10.4993 1.04199C15.441 1.04199 19.4577 5.05866 19.4577 10.0003C19.4577 14.942 15.441 18.9587 10.4993 18.9587ZM10.4993 2.29199C6.24935 2.29199 2.79102 5.75033 2.79102 10.0003C2.79102 14.2503 6.24935 17.7087 10.4993 17.7087C14.7493 17.7087 18.2077 14.2503 18.2077 10.0003C18.2077 5.75033 14.7493 2.29199 10.4993 2.29199Z" fill="#2667AF"/>
</svg>
