<svg width="24" height="24" viewBox="0 0 24 24" fill="none" xmlns="http://www.w3.org/2000/svg">
<path d="M11.9989 1.99812C10.4649 1.99206 8.95058 2.34433 7.57672 3.02687C7.48562 3.06363 7.40309 3.11878 7.33427 3.18887C7.26545 3.25897 7.21183 3.3425 7.17675 3.43426C7.14167 3.52601 7.12589 3.62401 7.1304 3.72214C7.1349 3.82027 7.1596 3.91641 7.20293 4.00456C7.24627 4.09272 7.30732 4.17099 7.38227 4.23448C7.45723 4.29798 7.54447 4.34533 7.63854 4.37359C7.73262 4.40184 7.83152 4.4104 7.92905 4.39871C8.02658 4.38702 8.12066 4.35535 8.2054 4.30566C9.5129 3.66049 10.9634 3.35945 12.4196 3.431C13.8759 3.50255 15.2898 3.94433 16.5278 4.71457C17.7657 5.48481 18.7868 6.55805 19.4944 7.83284C20.2021 9.10763 20.5729 10.5418 20.5718 11.9998C20.5718 15.4862 18.7001 19.3725 15.5709 19.8583C15.2387 19.9377 14.893 19.9431 14.5584 19.8739C14.2238 19.8048 13.9085 19.6629 13.6349 19.4583C13.0132 18.7713 12.6827 17.8696 12.7133 16.9436C13.9025 16.7719 14.9902 16.1778 15.7773 15.27C16.5644 14.3622 16.9984 13.2014 16.9998 11.9998V7.71339C16.9998 7.52392 16.9245 7.34221 16.7905 7.20823C16.6565 7.07425 16.4748 6.99898 16.2854 6.99898H14.1421C13.9527 6.99898 13.7709 7.07425 13.637 7.20823C13.503 7.34221 13.4277 7.52392 13.4277 7.71339C13.4277 7.90287 13.503 8.08458 13.637 8.21856C13.7709 8.35253 13.9527 8.4278 14.1421 8.4278H15.5709V11.9998C15.5709 12.9472 15.1946 13.8558 14.5247 14.5257C13.8548 15.1955 12.9463 15.5719 11.9989 15.5719C11.0515 15.5719 10.143 15.1955 9.47309 14.5257C8.8032 13.8558 8.42686 12.9472 8.42686 11.9998V8.4278H9.85568C10.0452 8.4278 10.2269 8.35253 10.3608 8.21856C10.4948 8.08458 10.5701 7.90287 10.5701 7.71339C10.5701 7.52392 10.4948 7.34221 10.3608 7.20823C10.2269 7.07425 10.0452 6.99898 9.85568 6.99898H7.71246C7.52298 6.99898 7.34127 7.07425 7.20729 7.20823C7.07331 7.34221 6.99805 7.52392 6.99805 7.71339V11.9998C6.99946 13.2014 7.43341 14.3622 8.22053 15.27C9.00765 16.1778 10.0953 16.7719 11.2845 16.9436C11.3774 18.5867 11.8417 19.8012 12.6705 20.5156C13.3169 21.0558 14.1438 21.3314 14.9851 21.2872C15.2479 21.2874 15.5104 21.2707 15.771 21.2372C19.8145 20.6513 22.0006 16.0363 22.0006 11.9998C22.0006 9.34722 20.9469 6.80325 19.0712 4.92756C17.1955 3.05187 14.6515 1.99812 11.9989 1.99812Z" fill="#0F192C"/>
<path d="M5.5688 16.2872C5.26234 16.2918 4.95854 16.3448 4.66865 16.4443C3.68934 14.8298 3.27051 12.937 3.4772 11.06C3.68389 9.183 4.50453 7.42675 5.8117 6.06396C5.88478 5.99824 5.94351 5.91815 5.98422 5.8287C6.02493 5.73925 6.04675 5.64235 6.04831 5.54409C6.04986 5.44582 6.03113 5.34828 5.99327 5.25758C5.95541 5.16689 5.89925 5.08498 5.82829 5.01697C5.75733 4.94897 5.67311 4.89634 5.58088 4.86238C5.48865 4.82841 5.39041 4.81384 5.2923 4.81958C5.19418 4.82531 5.09831 4.85123 5.01067 4.89571C4.92303 4.94019 4.84551 5.00227 4.78296 5.07808C3.25282 6.67276 2.29395 8.72934 2.05613 10.9266C1.81832 13.1238 2.31495 15.3379 3.46844 17.223C3.02737 17.7085 2.7667 18.3308 2.7302 18.9857C2.6937 19.6406 2.88358 20.2881 3.26798 20.8195C3.65238 21.351 4.20789 21.734 4.84128 21.9043C5.47466 22.0747 6.14736 22.0219 6.74647 21.755C7.34558 21.488 7.83462 21.0231 8.13151 20.4383C8.42841 19.8534 8.51508 19.1843 8.37698 18.5431C8.23888 17.9019 7.88442 17.3277 7.37309 16.9169C6.86176 16.5062 6.22469 16.2838 5.5688 16.2872ZM5.5688 20.5736C5.28621 20.5736 5.00996 20.4898 4.775 20.3328C4.54003 20.1758 4.35689 19.9527 4.24875 19.6916C4.14061 19.4305 4.11231 19.1432 4.16744 18.866C4.22257 18.5889 4.35865 18.3343 4.55848 18.1345C4.7583 17.9346 5.01289 17.7986 5.29006 17.7434C5.56722 17.6883 5.85451 17.7166 6.11559 17.8247C6.37667 17.9329 6.59982 18.116 6.75682 18.351C6.91382 18.5859 6.99762 18.8622 6.99762 19.1448C6.99762 19.5237 6.84709 19.8872 6.57913 20.1551C6.31118 20.4231 5.94775 20.5736 5.5688 20.5736Z" fill="#0F192C"/>
</svg>
