<svg width="39" height="39" viewBox="0 0 39 39" fill="none" xmlns="http://www.w3.org/2000/svg">
<rect x="0.402344" y="0.976562" width="38" height="38" rx="19" fill="#E1E1E1"/>
<g clip-path="url(#clip0_1115_12368)">
<path d="M19.4017 11.7266C17.7508 11.7266 16.137 12.2104 14.7644 13.1169C13.3917 14.0235 12.3218 15.3119 11.6901 16.8194C11.0583 18.3269 10.893 19.9857 11.2151 21.5861C11.5371 23.1864 12.3321 24.6564 13.4995 25.8102C14.6668 26.964 16.1541 27.7497 17.7733 28.068C19.3925 28.3864 21.0708 28.223 22.596 27.5986C24.1212 26.9741 25.4248 25.9167 26.342 24.56C27.2592 23.2033 27.7487 21.6083 27.7487 19.9766C27.7461 17.7893 26.8659 15.6924 25.3011 14.1458C23.7363 12.5992 21.6147 11.7291 19.4017 11.7266ZM22.2147 22.7568C22.0724 22.8974 21.8794 22.9764 21.6782 22.9764C21.477 22.9764 21.284 22.8974 21.1417 22.7568L18.8652 20.5068C18.7229 20.3662 18.6429 20.1755 18.6429 19.9766V15.4766C18.6429 15.2776 18.7228 15.0869 18.8651 14.9462C19.0075 14.8056 19.2005 14.7266 19.4017 14.7266C19.603 14.7266 19.796 14.8056 19.9383 14.9462C20.0806 15.0869 20.1605 15.2776 20.1605 15.4766V19.6661L22.2147 21.6963C22.3569 21.837 22.4368 22.0277 22.4368 22.2266C22.4368 22.4254 22.3569 22.6162 22.2147 22.7568Z" fill="#1A1919"/>
</g>
<defs>
<clipPath id="clip0_1115_12368">
<rect width="18.2117" height="18" fill="white" transform="translate(10.2969 10.9766)"/>
</clipPath>
</defs>
</svg>
