<svg width="20" height="20" viewBox="0 0 20 20" fill="none" xmlns="http://www.w3.org/2000/svg">
<path d="M12.3248 16.1833C12.2332 16.1833 12.1332 16.1583 12.0498 16.1167C11.7415 15.9583 11.6165 15.5833 11.7665 15.275L13.5498 11.7166C13.6582 11.5083 13.8748 11.375 14.1082 11.375C14.3415 11.375 14.5582 11.5083 14.6665 11.725L16.4498 15.2833C16.6082 15.5917 16.4832 15.9666 16.1665 16.125C15.8582 16.2833 15.4832 16.1583 15.3248 15.8417L14.1082 13.4L12.8915 15.8417C12.7748 16.0583 12.5498 16.1833 12.3248 16.1833Z" fill="#0F192C"/>
<path d="M15.5671 15.5508H12.6338C12.2921 15.5508 12.0088 15.2674 12.0088 14.9258C12.0088 14.5841 12.2921 14.3008 12.6338 14.3008H15.5671C15.9088 14.3008 16.1921 14.5841 16.1921 14.9258C16.1921 15.2674 15.9171 15.5508 15.5671 15.5508Z" fill="#0F192C"/>
<path d="M14.0995 18.9588C11.4245 18.9588 9.24121 16.7838 9.24121 14.1005C9.24121 11.4172 11.4162 9.24219 14.0995 9.24219C16.7745 9.24219 18.9579 11.4172 18.9579 14.1005C18.9579 16.7838 16.7829 18.9588 14.0995 18.9588ZM14.0995 10.5005C12.1079 10.5005 10.4912 12.1172 10.4912 14.1088C10.4912 16.1005 12.1079 17.7172 14.0995 17.7172C16.0829 17.7172 17.7079 16.1005 17.7079 14.1088C17.7079 12.1172 16.0912 10.5005 14.0995 10.5005Z" fill="#0F192C"/>
<path d="M4.05033 10.5832C3.12533 10.5832 2.39199 10.3249 1.87533 9.82486C1.32533 9.29153 1.04199 8.4832 1.04199 7.44154V4.17489C1.04199 2.14989 2.15866 1.0332 4.18366 1.0332H7.45033C8.49199 1.0332 9.29199 1.3082 9.83366 1.86654C10.3587 2.4082 10.617 3.19157 10.592 4.19157V7.44154C10.617 8.45821 10.3587 9.25822 9.81699 9.79989C9.27532 10.3416 8.47532 10.5915 7.44199 10.5749H4.19199C4.13366 10.5832 4.09199 10.5832 4.05033 10.5832ZM4.18366 2.29154C2.842 2.29154 2.29199 2.84156 2.29199 4.18323V7.44988C2.29199 8.14155 2.44199 8.64152 2.74199 8.93319C3.03365 9.21652 3.50033 9.34155 4.15866 9.33322H7.44199C8.14199 9.34989 8.62532 9.20822 8.91699 8.91655C9.20866 8.62489 9.34199 8.13322 9.32533 7.45822V4.17489C9.34199 3.50822 9.20866 3.03319 8.92533 2.74153C8.63366 2.44153 8.13365 2.29154 7.44199 2.29154H4.18366Z" fill="#0F192C"/>
<path d="M7.49954 5.5H4.11621C3.77454 5.5 3.49121 5.21667 3.49121 4.875C3.49121 4.53333 3.77454 4.25 4.11621 4.25H7.49954C7.84121 4.25 8.12454 4.53333 8.12454 4.875C8.12454 5.21667 7.84954 5.5 7.49954 5.5Z" fill="#0F192C"/>
<path d="M5.81641 5.50025C5.47474 5.50025 5.19141 5.21692 5.19141 4.87525V4.30859C5.19141 3.96693 5.47474 3.68359 5.81641 3.68359C6.15807 3.68359 6.44141 3.96693 6.44141 4.30859V4.87525C6.44141 5.21692 6.15807 5.50025 5.81641 5.50025Z" fill="#0F192C"/>
<path d="M4.11621 8.13384C3.77454 8.13384 3.49121 7.85051 3.49121 7.50884C3.49121 7.16717 3.77454 6.88384 4.11621 6.88384C5.17454 6.88384 6.03288 5.98385 6.03288 4.86719C6.03288 4.52552 6.31621 4.24219 6.65788 4.24219C6.99955 4.24219 7.28288 4.52552 7.28288 4.86719C7.28288 6.66719 5.86621 8.13384 4.11621 8.13384Z" fill="#0F192C"/>
<path d="M7.50869 8.13241C6.73369 8.13241 5.99202 7.74076 5.46702 7.04909C5.25869 6.77409 5.31703 6.38238 5.59203 6.17405C5.86703 5.96571 6.25869 6.02407 6.46702 6.29907C6.75035 6.6824 7.12535 6.89075 7.50869 6.89075C7.85035 6.89075 8.13369 7.17409 8.13369 7.51575C8.13369 7.85742 7.85035 8.13241 7.50869 8.13241Z" fill="#0F192C"/>
<path d="M7.50033 18.9583C3.94199 18.9583 1.04199 16.0583 1.04199 12.5C1.04199 12.1583 1.32533 11.875 1.66699 11.875C2.00866 11.875 2.29199 12.1583 2.29199 12.5C2.29199 14.9667 4.00866 17.0334 6.31699 17.575L6.09199 17.2C5.91699 16.9 6.00867 16.5167 6.30867 16.3417C6.60033 16.1667 6.992 16.2583 7.167 16.5583L8.04199 18.0167C8.15865 18.2083 8.15866 18.45 8.05033 18.6417C7.93366 18.8333 7.72533 18.9583 7.50033 18.9583Z" fill="#0F192C"/>
<path d="M18.3337 8.12435C17.992 8.12435 17.7087 7.84102 17.7087 7.49935C17.7087 5.03268 15.992 2.96599 13.6837 2.42433L13.9087 2.79934C14.0837 3.09934 13.992 3.48269 13.692 3.65769C13.4003 3.83269 13.0087 3.74102 12.8337 3.44102L11.9587 1.98269C11.842 1.79102 11.842 1.54935 11.9504 1.35769C12.0587 1.15769 12.267 1.04102 12.492 1.04102C16.0504 1.04102 18.9504 3.94102 18.9504 7.49935C18.9587 7.84102 18.6754 8.12435 18.3337 8.12435Z" fill="#0F192C"/>
</svg>
