<svg width="60" height="60" viewBox="0 0 60 60" fill="none" xmlns="http://www.w3.org/2000/svg">
<rect width="60" height="60" rx="30" fill="url(#paint0_linear_5504_20285)"/>
<path d="M20 43.5H40V38.6786C39.9979 36.889 39.2597 35.1733 37.9474 33.9079C36.6351 32.6424 34.8559 31.9306 33 31.9286H27C25.1441 31.9306 23.3649 32.6424 22.0526 33.9079C20.7403 35.1733 20.0021 36.889 20 38.6786V43.5ZM23 23.25C23 24.585 23.4105 25.8901 24.1797 27.0001C24.9489 28.1101 26.0421 28.9753 27.3212 29.4862C28.6003 29.9971 30.0078 30.1308 31.3656 29.8703C32.7235 29.6099 33.9708 28.967 34.9497 28.023C35.9287 27.079 36.5954 25.8762 36.8655 24.5669C37.1356 23.2575 36.997 21.9003 36.4672 20.6669C35.9373 19.4335 35.0401 18.3793 33.889 17.6376C32.7378 16.8959 31.3845 16.5 30 16.5C28.1435 16.5 26.363 17.2112 25.0503 18.477C23.7375 19.7429 23 21.4598 23 23.25Z" fill="white"/>
<defs>
<linearGradient id="paint0_linear_5504_20285" x1="0" y1="54" x2="62.2078" y2="54" gradientUnits="userSpaceOnUse">
<stop stop-color="#2667AF"/>
<stop offset="1" stop-color="#4DA9DE"/>
</linearGradient>
</defs>
</svg>
