<svg width="28" height="39" viewBox="0 0 28 39" fill="none" xmlns="http://www.w3.org/2000/svg">
<path d="M0 39H28V32.0357C27.997 29.4508 26.9636 26.9725 25.1264 25.1447C23.2892 23.3168 20.7982 22.2887 18.2 22.2857H9.8C7.20179 22.2887 4.71084 23.3168 2.87363 25.1447C1.03641 26.9725 0.00296431 29.4508 0 32.0357V39ZM4.2 9.75C4.2 11.6784 4.77476 13.5634 5.8516 15.1668C6.92844 16.7702 8.45899 18.0199 10.2497 18.7578C12.0404 19.4958 14.0109 19.6889 15.9119 19.3127C17.8129 18.9365 19.5591 18.0079 20.9296 16.6443C22.3002 15.2807 23.2336 13.5434 23.6117 11.6521C23.9898 9.76082 23.7958 7.80042 23.054 6.01884C22.3123 4.23726 21.0562 2.71452 19.4446 1.64317C17.833 0.571828 15.9383 0 14 0C11.4009 0 8.90821 1.02723 7.07035 2.85571C5.2325 4.68419 4.2 7.16414 4.2 9.75Z" fill="white"/>
</svg>
