<svg width="60" height="60" viewBox="0 0 60 60" fill="none" xmlns="http://www.w3.org/2000/svg">
<rect width="60" height="60" rx="30" fill="#F5F5F5"/>
<path d="M30.9173 44.3167C29.6007 44.3167 28.1507 43.85 26.7007 42.9333L21.834 39.8833C21.5007 39.6833 21.1173 39.5667 20.734 39.5667H18.334C14.3007 39.5667 12.084 37.35 12.084 33.3167V26.65C12.084 22.6167 14.3007 20.4 18.334 20.4H20.7173C21.1007 20.4 21.484 20.2833 21.8173 20.0833L26.684 17.0333C29.1173 15.5167 31.484 15.2333 33.3507 16.2667C35.2173 17.3 36.234 19.45 36.234 22.3333V37.6167C36.234 40.4833 35.2007 42.65 33.3507 43.6833C32.6173 44.1167 31.784 44.3167 30.9173 44.3167ZM18.334 22.9167C15.7007 22.9167 14.584 24.0333 14.584 26.6667V33.3333C14.584 35.9667 15.7007 37.0833 18.334 37.0833H20.7173C21.584 37.0833 22.4173 37.3167 23.1507 37.7833L28.0173 40.8333C29.6173 41.8333 31.134 42.1 32.1507 41.5333C33.1673 40.9667 33.7507 39.55 33.7507 37.6667V22.35C33.7507 20.45 33.1673 19.0333 32.1507 18.4833C31.134 17.9167 29.6173 18.1667 28.0173 19.1833L23.134 22.2167C22.4173 22.6833 21.5673 22.9167 20.7173 22.9167H18.334Z" fill="#292D32"/>
<path d="M40.0005 37.9168C39.7338 37.9168 39.4838 37.8335 39.2505 37.6668C38.7005 37.2501 38.5838 36.4668 39.0005 35.9168C41.6171 32.4335 41.6171 27.5668 39.0005 24.0835C38.5838 23.5335 38.7005 22.7501 39.2505 22.3335C39.8005 21.9168 40.5838 22.0335 41.0005 22.5835C44.2671 26.9501 44.2671 33.0501 41.0005 37.4168C40.7505 37.7501 40.3838 37.9168 40.0005 37.9168Z" fill="#292D32"/>
<path d="M43.0493 42.0831C42.7826 42.0831 42.5326 41.9998 42.2993 41.8331C41.7493 41.4165 41.6326 40.6331 42.0493 40.0831C46.4993 34.1498 46.4993 25.8498 42.0493 19.9165C41.6326 19.3665 41.7493 18.5831 42.2993 18.1665C42.8493 17.7498 43.6326 17.8665 44.0493 18.4165C49.166 25.2331 49.166 34.7665 44.0493 41.5831C43.816 41.9165 43.4326 42.0831 43.0493 42.0831Z" fill="#292D32"/>
</svg>
