<svg width="60" height="60" viewBox="0 0 60 60" fill="none" xmlns="http://www.w3.org/2000/svg">
<rect width="60" height="60" rx="30" fill="#F5F5F5"/>
<path d="M21.6673 39.5833H18.334C14.3007 39.5833 12.084 37.3666 12.084 33.3333V26.6666C12.084 22.6333 14.3007 20.4166 18.334 20.4166H20.7173C21.1007 20.4166 21.484 20.2999 21.8173 20.0999L26.684 17.0499C29.1173 15.5333 31.484 15.2499 33.3507 16.2833C35.2173 17.3166 36.234 19.4666 36.234 22.3499V23.9499C36.234 24.6333 35.6673 25.1999 34.984 25.1999C34.3006 25.1999 33.734 24.6333 33.734 23.9499V22.3499C33.734 20.4499 33.1507 19.0333 32.134 18.4833C31.1173 17.9166 29.6173 18.1666 28.0007 19.1833L23.134 22.2166C22.4173 22.6833 21.5673 22.9166 20.7173 22.9166H18.334C15.7007 22.9166 14.584 24.0333 14.584 26.6666V33.3333C14.584 35.9666 15.7007 37.0833 18.334 37.0833H21.6673C22.3507 37.0833 22.9173 37.65 22.9173 38.3333C22.9173 39.0166 22.3507 39.5833 21.6673 39.5833Z" fill="#292D32"/>
<path d="M30.9173 44.3163C29.6006 44.3163 28.1506 43.8497 26.7006 42.933C26.1173 42.5663 25.934 41.7997 26.3006 41.2163C26.6673 40.633 27.434 40.4497 28.0173 40.8163C29.634 41.8163 31.134 42.083 32.1506 41.5163C33.1673 40.9497 33.7506 39.533 33.7506 37.6497V31.583C33.7506 30.8997 34.3173 30.333 35.0006 30.333C35.684 30.333 36.2506 30.8997 36.2506 31.583V37.6497C36.2506 40.5163 35.2173 42.683 33.3673 43.7163C32.6173 44.1163 31.784 44.3163 30.9173 44.3163Z" fill="#292D32"/>
<path d="M40.0005 37.9162C39.7338 37.9162 39.4838 37.8329 39.2505 37.6662C38.7005 37.2496 38.5838 36.4662 39.0005 35.9162C41.1005 33.1162 41.5505 29.3996 40.2005 26.1829C39.9338 25.5496 40.2338 24.8162 40.8671 24.5496C41.5005 24.2829 42.2338 24.5829 42.5005 25.2162C44.2005 29.2496 43.6171 33.9329 41.0005 37.4329C40.7505 37.7495 40.3838 37.9162 40.0005 37.9162Z" fill="#292D32"/>
<path d="M43.0493 42.0837C42.7826 42.0837 42.5326 42.0003 42.2993 41.8337C41.7493 41.417 41.6326 40.6337 42.0493 40.0837C45.6159 35.3337 46.3993 28.967 44.0993 23.4837C43.8326 22.8503 44.1326 22.117 44.766 21.8503C45.416 21.5837 46.1326 21.8837 46.3993 22.517C49.0493 28.817 48.1493 36.117 44.0493 41.5837C43.816 41.917 43.4326 42.0837 43.0493 42.0837Z" fill="#292D32"/>
<path d="M13.3337 47.9171C13.0171 47.9171 12.7004 47.8004 12.4504 47.5504C11.9671 47.0671 11.9671 46.2671 12.4504 45.7837L45.7837 12.4504C46.2671 11.9671 47.0671 11.9671 47.5504 12.4504C48.0337 12.9337 48.0337 13.7337 47.5504 14.2171L14.2171 47.5504C13.9671 47.8004 13.6504 47.9171 13.3337 47.9171Z" fill="#292D32"/>
</svg>
