<svg width="30" height="31" viewBox="0 0 30 31" fill="none" xmlns="http://www.w3.org/2000/svg">
<path d="M16.5 19C16.5 17.1144 16.5 16.1716 17.0858 15.5858C17.6716 15 18.6144 15 20.5 15C22.3856 15 23.3284 15 23.9142 15.5858C24.5 16.1716 24.5 17.1144 24.5 19V21C24.5 22.8856 24.5 23.8284 23.9142 24.4142C23.3284 25 22.3856 25 20.5 25C18.6144 25 17.6716 25 17.0858 24.4142C16.5 23.8284 16.5 22.8856 16.5 21V19Z" stroke="#1A1919" stroke-width="1.5"/>
<path d="M5 12C5 13.8856 5 14.8284 5.58579 15.4142C6.17157 16 7.11438 16 9 16C10.8856 16 11.8284 16 12.4142 15.4142C13 14.8284 13 13.8856 13 12V10C13 8.11438 13 7.17157 12.4142 6.58579C11.8284 6 10.8856 6 9 6C7.11438 6 6.17157 6 5.58579 6.58579C5 7.17157 5 8.11438 5 10V12Z" stroke="#1A1919" stroke-width="1.5"/>
<path d="M16.5 9C16.5 8.06812 16.5 7.60218 16.6522 7.23463C16.8552 6.74458 17.2446 6.35523 17.7346 6.15224C18.1022 6 18.5681 6 19.5 6H21.5C22.4319 6 22.8978 6 23.2654 6.15224C23.7554 6.35523 24.1448 6.74458 24.3478 7.23463C24.5 7.60218 24.5 8.06812 24.5 9C24.5 9.93188 24.5 10.3978 24.3478 10.7654C24.1448 11.2554 23.7554 11.6448 23.2654 11.8478C22.8978 12 22.4319 12 21.5 12H19.5C18.5681 12 18.1022 12 17.7346 11.8478C17.2446 11.6448 16.8552 11.2554 16.6522 10.7654C16.5 10.3978 16.5 9.93188 16.5 9Z" stroke="#1A1919" stroke-width="1.5"/>
<path d="M5 22C5 22.9319 5 23.3978 5.15224 23.7654C5.35523 24.2554 5.74458 24.6448 6.23463 24.8478C6.60218 25 7.06812 25 8 25H10C10.9319 25 11.3978 25 11.7654 24.8478C12.2554 24.6448 12.6448 24.2554 12.8478 23.7654C13 23.3978 13 22.9319 13 22C13 21.0681 13 20.6022 12.8478 20.2346C12.6448 19.7446 12.2554 19.3552 11.7654 19.1522C11.3978 19 10.9319 19 10 19H8C7.06812 19 6.60218 19 6.23463 19.1522C5.74458 19.3552 5.35523 19.7446 5.15224 20.2346C5 20.6022 5 21.0681 5 22Z" stroke="#1A1919" stroke-width="1.5"/>
</svg>
